<svg class="lds-flat-gear" width="112px"  height="112px"  xmlns="http://www.w3.org/2000/svg" xmlns:xlink="http://www.w3.org/1999/xlink" viewBox="0 0 100 100" preserveAspectRatio="xMidYMid" style="background: none;"><defs><mask id="lds-flat-gear-d3395d6a9a0ce"><circle cx="50" cy="50" r="45" fill="#fff"></circle></mask></defs>
<circle cx="50" cy="50" r="45" fill="#ffbc00"></circle>
<path d="M28.786796564403573 71.21320343559643 L39.39339828220179 60.60660171779821 A15 15 0 0 1 60.60660171779821 39.39339828220179 L71.21320343559643 28.786796564403577 L171.21320343559643 128.78679656440357 L128.78679656440357 171.21320343559643 Z" fill="rgb(206, 152, 0)" mask="url(#lds-flat-gear-d3395d6a9a0ce)"></path>
<g transform="translate(50 50)">
<g transform="rotate(87.6024)">
<animateTransform attributeName="transform" type="rotate" values="0;360" keyTimes="0;1" dur="2.6s" repeatCount="indefinite"></animateTransform><path d="M37.25251669350676 -7.5 L47.25251669350676 -7.5 L47.25251669350676 7.5 L37.25251669350676 7.5 A38 38 0 0 1 34.546308480476945 15.828852465410332 L34.546308480476945 15.828852465410332 L42.63647842422642 21.706704988335062 L33.81969963983932 33.84195990395928 L25.72952969608985 27.964107381034545 A38 38 0 0 1 18.644584613743664 33.11162129194149 L18.644584613743664 33.11162129194149 L21.73475455749314 42.622186454893026 L7.468906813065843 47.257441370517235 L4.378736869316368 37.7468762075657 A38 38 0 0 1 -4.378736869316364 37.7468762075657 L-4.378736869316364 37.7468762075657 L-7.468906813065837 47.257441370517235 L-21.734754557493133 42.622186454893026 L-18.64458461374366 33.11162129194149 A38 38 0 0 1 -25.72952969608985 27.964107381034545 L-25.72952969608985 27.964107381034545 L-33.81969963983932 33.84195990395928 L-42.63647842422642 21.706704988335073 L-34.546308480476945 15.82885246541034 A38 38 0 0 1 -37.25251669350676 7.5 L-37.25251669350676 7.5 L-47.25251669350676 7.500000000000001 L-47.25251669350676 -7.499999999999991 L-37.25251669350676 -7.499999999999992 A38 38 0 0 1 -34.546308480476945 -15.828852465410332 L-34.546308480476945 -15.828852465410332 L-42.63647842422642 -21.706704988335062 L-33.81969963983933 -33.84195990395927 L-25.729529696089852 -27.96410738103454 A38 38 0 0 1 -18.64458461374368 -33.11162129194148 L-18.64458461374368 -33.11162129194148 L-21.734754557493158 -42.62218645489302 L-7.468906813065832 -47.257441370517235 L-4.378736869316356 -37.7468762075657 A38 38 0 0 1 4.378736869316342 -37.7468762075657 L4.378736869316342 -37.7468762075657 L7.468906813065814 -47.257441370517235 L21.734754557493144 -42.622186454893026 L18.64458461374367 -33.11162129194149 A38 38 0 0 1 25.72952969608983 -27.964107381034562 L25.72952969608983 -27.964107381034562 L33.8196996398393 -33.84195990395929 L42.63647842422642 -21.706704988335062 L34.546308480476945 -15.82885246541033 A38 38 0 0 1 37.252516693506756 -7.500000000000021 M0 -20A20 20 0 1 0 0 20 A20 20 0 1 0 0 -20" fill="#f5f5f5" transform="scale(0.65)"></path></g></g></svg>